<svg xmlns="http://www.w3.org/2000/svg" viewBox="0 0 740 380" width="100%" height="100%" fill="none">
  <defs>
    <pattern id="grid-p4" width="20" height="20" patternUnits="userSpaceOnUse">
      <path d="M 20 0 L 0 0 0 20" fill="none" stroke="#1e293b" stroke-width="0.5" stroke-opacity="0.6"/>
    </pattern>
    <linearGradient id="chartGrad4" x1="0" y1="0" x2="0" y2="1">
      <stop offset="0%" stop-color="#e2c974" stop-opacity="0.35"/>
      <stop offset="100%" stop-color="#e2c974" stop-opacity="0.0"/>
    </linearGradient>
    <style>
      text { font-family: 'IBM Plex Mono', -apple-system, monospace; user-select: none; }
    </style>
  </defs>

  <!-- Background Canvas -->
  <rect width="740" height="380" fill="#0b1120" rx="12"/>
  <rect width="740" height="380" fill="url(#grid-p4)" rx="12"/>
  <rect x="0.5" y="0.5" width="739" height="379" stroke="#334155" stroke-width="1" rx="12"/>
  <rect x="8" y="8" width="724" height="364" stroke="#334155" stroke-width="0.5" stroke-opacity="0.4" rx="8"/>

  <!-- Tactical Corner Crosshairs -->
  <path d="M 4 14 L 4 4 L 14 4" stroke="#e2c974" stroke-width="1.5" fill="none"/>
  <path d="M 726 4 L 736 4 L 736 14" stroke="#e2c974" stroke-width="1.5" fill="none"/>
  <path d="M 4 366 L 4 376 L 14 376" stroke="#e2c974" stroke-width="1.5" fill="none"/>
  <path d="M 726 376 L 736 376 L 736 366" stroke="#e2c974" stroke-width="1.5" fill="none"/>

  <!-- Telemetry Header Bar -->
  <line x1="8" y1="36" x2="732" y2="36" stroke="#334155" stroke-width="1" stroke-opacity="0.6"/>
  <rect x="18" y="16" width="6" height="6" fill="#06b6d4" rx="2"/>
  <text x="32" y="23" fill="#06b6d4" font-size="9" font-weight="700" letter-spacing="1.2">SPEC-ID: 8409-AS · 04 · SMART DB v1 DATA PIPELINE</text>
  <text x="440" y="23" fill="#94a3b8" font-size="8" letter-spacing="0.5">100M CONTACT CONSOLIDATION</text>
  <rect x="620" y="13" width="102" height="17" fill="#111827" stroke="#334155" stroke-width="1" rx="4"/>
  <rect x="626" y="18" width="6" height="6" fill="#10b981" rx="2"/>
  <text x="638" y="24" fill="#10b981" font-size="7.5" font-weight="700" letter-spacing="0.5">SCALE: 100M RECS</text>

  <!-- ================= MODULE 01: RAW INGESTION ================= -->
  <g id="mod-raw">
    <rect x="24" y="48" width="144" height="142" fill="#111827" stroke="#06b6d4" stroke-width="1.5" rx="6"/>
    <rect x="24" y="48" width="144" height="22" fill="#06b6d4" rx="6"/>
    <text x="96" y="63" fill="#0b1120" font-size="8.5" font-weight="700" text-anchor="middle" letter-spacing="1">01 · RAW INGESTION</text>
    <text x="96" y="88" fill="#f8fafc" font-size="10" font-weight="700" text-anchor="middle">UNSTRUCTURED DUMPS</text>
    <text x="96" y="103" fill="#06b6d4" font-size="8" font-weight="700" text-anchor="middle">94.7M Sparse Rows</text>
    <line x1="36" y1="112" x2="156" y2="112" stroke="#334155" stroke-width="0.8" stroke-dasharray="2 2"/>
    <text x="96" y="126" fill="#94a3b8" font-size="7.5" text-anchor="middle">Operator TSV/CSV Dumps</text>
    <text x="96" y="140" fill="#94a3b8" font-size="7.5" text-anchor="middle">Inconsistent Schema Map</text>
    <text x="96" y="154" fill="#e2c974" font-size="7.5" text-anchor="middle">Phonetic Variations</text>
    <rect x="36" y="163" width="120" height="18" fill="#0b1120" stroke="#334155" stroke-width="1" rx="4"/>
    <text x="96" y="175" fill="#10b981" font-size="7" font-weight="700" text-anchor="middle">INGEST: COMPLETE</text>
  </g>

  <!-- Conduit 1 -> 2 -->
  <path d="M 168 119 L 202 119" stroke="#06b6d4" stroke-width="2" stroke-dasharray="4 2"/>
  <polygon points="204,119 194,114 194,124" fill="#06b6d4"/>
  <text x="186" y="111" fill="#06b6d4" font-size="7" font-weight="700" text-anchor="middle">STREAM</text>

  <!-- ================= MODULE 02: NORMALIZATION ================= -->
  <g id="mod-clean">
    <rect x="204" y="48" width="150" height="142" fill="#111827" stroke="#e2c974" stroke-width="1.5" rx="6"/>
    <rect x="204" y="48" width="150" height="22" fill="#e2c974" rx="6"/>
    <text x="279" y="63" fill="#0b1120" font-size="8.5" font-weight="700" text-anchor="middle" letter-spacing="1">02 · NORMALIZATION</text>
    <text x="279" y="88" fill="#f8fafc" font-size="10" font-weight="700" text-anchor="middle">DETERMINISTIC CLEANER</text>
    <text x="279" y="103" fill="#e2c974" font-size="8" font-weight="700" text-anchor="middle">Persian Text &amp; Phonetics</text>
    <line x1="216" y1="112" x2="342" y2="112" stroke="#334155" stroke-width="0.8" stroke-dasharray="2 2"/>
    <text x="279" y="126" fill="#94a3b8" font-size="7.5" text-anchor="middle">Arabic/Persian Char Fix</text>
    <text x="279" y="140" fill="#94a3b8" font-size="7.5" text-anchor="middle">Phonetic Blocking Hash</text>
    <text x="279" y="154" fill="#f8fafc" font-size="7.5" text-anchor="middle">Entity Deduplication</text>
    <rect x="216" y="163" width="126" height="18" fill="#0b1120" stroke="#334155" stroke-width="1" rx="4"/>
    <text x="279" y="175" fill="#e2c974" font-size="7" font-weight="700" text-anchor="middle">ACCURACY: 70% MATCH</text>
  </g>

  <!-- Conduit 2 -> 3 -->
  <path d="M 354 119 L 388 119" stroke="#e2c974" stroke-width="2" stroke-dasharray="4 2"/>
  <polygon points="390,119 380,114 380,124" fill="#e2c974"/>
  <text x="372" y="111" fill="#e2c974" font-size="7" font-weight="700" text-anchor="middle">PARQUET</text>

  <!-- ================= MODULE 03: DUCKDB VECTOR STORE ================= -->
  <g id="mod-duckdb">
    <rect x="390" y="48" width="150" height="142" fill="#111827" stroke="#10b981" stroke-width="1.5" rx="6"/>
    <rect x="390" y="48" width="150" height="22" fill="#10b981" rx="6"/>
    <text x="465" y="63" fill="#0b1120" font-size="8.5" font-weight="700" text-anchor="middle" letter-spacing="1">03 · COLUMNAR ENGINE</text>
    <text x="465" y="88" fill="#f8fafc" font-size="10" font-weight="700" text-anchor="middle">DUCKDB VECTOR STORE</text>
    <text x="465" y="103" fill="#10b981" font-size="8" font-weight="700" text-anchor="middle">Snappy Compressed</text>
    <line x1="402" y1="112" x2="528" y2="112" stroke="#334155" stroke-width="0.8" stroke-dasharray="2 2"/>
    <text x="465" y="126" fill="#94a3b8" font-size="7.5" text-anchor="middle">In-Memory Execution</text>
    <text x="465" y="140" fill="#94a3b8" font-size="7.5" text-anchor="middle">70% Disk Space Savings</text>
    <text x="465" y="154" fill="#06b6d4" font-size="7.5" text-anchor="middle">Zero RDBMS Bottlenecks</text>
    <rect x="402" y="163" width="126" height="18" fill="#0b1120" stroke="#334155" stroke-width="1" rx="4"/>
    <text x="465" y="175" fill="#10b981" font-size="7" font-weight="700" text-anchor="middle">STORE: OPTIMIZED</text>
  </g>

  <!-- Conduit 3 -> 4 -->
  <path d="M 540 119 L 574 119" stroke="#334155" stroke-width="2" stroke-dasharray="4 2"/>
  <polygon points="576,119 566,114 566,124" fill="#334155"/>
  <text x="558" y="111" fill="#334155" font-size="7" font-weight="700" text-anchor="middle">INDEX</text>

  <!-- ================= MODULE 04: ELASTICSEARCH HUB ================= -->
  <g id="mod-elastic">
    <rect x="576" y="48" width="140" height="142" fill="#111827" stroke="#38bdf8" stroke-width="1.5" rx="6"/>
    <rect x="576" y="48" width="140" height="22" fill="#38bdf8" rx="6"/>
    <text x="646" y="63" fill="#0b1120" font-size="8.5" font-weight="700" text-anchor="middle" letter-spacing="1">04 · SEARCH HUB</text>
    <text x="646" y="88" fill="#f8fafc" font-size="10" font-weight="700" text-anchor="middle">ELASTICSEARCH CLUSTER</text>
    <text x="646" y="103" fill="#38bdf8" font-size="8" font-weight="700" text-anchor="middle">Distributed Lucene</text>
    <line x1="588" y1="112" x2="704" y2="112" stroke="#334155" stroke-width="0.8" stroke-dasharray="2 2"/>
    <text x="646" y="126" fill="#94a3b8" font-size="7.5" text-anchor="middle">100M Attribute Queries</text>
    <text x="646" y="140" fill="#f8fafc" font-size="7.5" text-anchor="middle">Sub-25ms Response SLA</text>
    <text x="646" y="154" fill="#e2c974" font-size="7.5" text-anchor="middle">Dedicated Gateway Auth</text>
    <rect x="588" y="163" width="116" height="18" fill="#0b1120" stroke="#334155" stroke-width="1" rx="4"/>
    <text x="646" y="175" fill="#10b981" font-size="7" font-weight="700" text-anchor="middle">STATUS: SERVING</text>
  </g>

  <!-- ================= MATHEMATICAL DATA GRAPH (y=202 to 318) ================= -->
  <g id="data-graph-4">
    <rect x="24" y="202" width="692" height="116" fill="#111827" stroke="#334155" stroke-width="1" rx="8"/>
    
    <!-- Graph Header -->
    <text x="40" y="220" fill="#e2c974" font-size="8" font-weight="700" letter-spacing="1">COMPACTION: DATASET REDUCTION STEPS &amp; PREDICTION ACCURACY CURVE</text>
    <text x="460" y="220" fill="#94a3b8" font-size="7.5">RAW: <tspan fill="#f8fafc" font-weight="700">180GB</tspan> → SNAPPY: <tspan fill="#10b981" font-weight="700">54GB (-70%)</tspan> · ACCURACY: <tspan fill="#06b6d4" font-weight="700">70.4%</tspan></text>
    <line x1="24" y1="228" x2="716" y2="228" stroke="#334155" stroke-width="0.5"/>

    <!-- Grid Horizontal Lines -->
    <line x1="44" y1="242" x2="696" y2="242" stroke="#334155" stroke-width="0.5" stroke-dasharray="3 3"/>
    <text x="698" y="244" fill="#64748b" font-size="6.5">180 GB</text>

    <line x1="44" y1="265" x2="696" y2="265" stroke="#334155" stroke-width="0.5" stroke-dasharray="2 2"/>
    <text x="698" y="267" fill="#64748b" font-size="6.5">100 GB</text>

    <line x1="44" y1="288" x2="696" y2="288" stroke="#334155" stroke-width="0.5" stroke-dasharray="2 2"/>
    <text x="698" y="290" fill="#64748b" font-size="6.5">50 GB</text>

    <line x1="44" y1="304" x2="696" y2="304" stroke="#334155" stroke-width="0.75"/>

    <!-- Step Down Waterfall Compaction Area -->
    <path d="M 44 304 
             L 44 242 
             L 220 242 
             L 220 268 
             L 430 268 
             L 430 288 
             L 696 288 
             L 696 304 Z" 
          fill="url(#chartGrad4)"/>

    <path d="M 44 242 
             L 220 242 
             L 220 268 
             L 430 268 
             L 430 288 
             L 696 288" 
          stroke="#e2c974" stroke-width="2" fill="none"/>

    <!-- Prediction Accuracy Curve (Rising Cyan Curve) -->
    <path d="M 44 300 
             C 120 295, 200 280, 280 260 
             C 360 242, 480 234, 696 232" 
          stroke="#06b6d4" stroke-width="2" fill="none"/>

    <!-- Accuracy Callout Point -->
    <circle cx="600" cy="233" r="4" fill="#06b6d4"/>
    <circle cx="600" cy="233" r="7" stroke="#06b6d4" stroke-width="0.75" stroke-opacity="0.6" fill="none"/>
    <rect x="540" y="238" width="120" height="12" fill="#0b1120" stroke="#06b6d4" stroke-width="0.75" rx="3"/>
    <text x="600" y="246" fill="#06b6d4" font-size="6.5" font-weight="700" text-anchor="middle">PRE-KYC ACCURACY: 70.4%</text>

    <!-- Compaction Callout Point -->
    <circle cx="430" cy="288" r="4" fill="#10b981"/>
    <rect x="375" y="272" width="110" height="12" fill="#0b1120" stroke="#10b981" stroke-width="0.75" rx="3"/>
    <text x="430" y="280" fill="#10b981" font-size="6.5" font-weight="700" text-anchor="middle">54GB PARQUET (-70%)</text>

    <!-- Legend -->
    <line x1="44" y1="311" x2="56" y2="311" stroke="#e2c974" stroke-width="2"/>
    <text x="60" y="313" fill="#94a3b8" font-size="6.5">Storage Footprint (180GB → 54GB)</text>
    <line x1="220" y1="311" x2="232" y2="311" stroke="#06b6d4" stroke-width="2"/>
    <text x="236" y="313" fill="#06b6d4" font-size="6.5">Predictive Behavior Match Accuracy (70.4%)</text>
    <circle cx="430" cy="311" r="2.5" fill="#10b981"/>
    <text x="436" y="313" fill="#10b981" font-size="6.5">Snappy In-Memory Compaction</text>
  </g>

  <!-- ================= INVARIANT TELEMETRY FOOTER ================= -->
  <rect x="24" y="328" width="692" height="40" fill="#111827" stroke="#334155" stroke-width="1" rx="6"/>
  <rect x="24" y="328" width="4" height="40" fill="#06b6d4" rx="2"/>
  <text x="36" y="343" fill="#06b6d4" font-size="7.5" font-weight="700" letter-spacing="0.8">ARCHITECTURAL INVARIANT:</text>
  <text x="172" y="343" fill="#f8fafc" font-size="7.5">ZERO PRODUCTION RDBMS DEGRADATION DURING PETABYTE MULTI-ATTRIBUTE AGGREGATIONS.</text>
  <text x="36" y="358" fill="#94a3b8" font-size="7">FAILURE MODE MITIGATION: READ PATH AIR-GAPPED VIA REPLICATED DUCKDB &amp; ELASTICSEARCH CLUSTER WITH LOCAL CACHE.</text>
</svg>