<?xml version="1.0" encoding="UTF-8"?>
<svg xmlns="http://www.w3.org/2000/svg" viewBox="0 0 800 400" width="100%" height="auto" class="w-full h-auto font-mono text-[11px]" dir="ltr">
    <defs>
      <linearGradient id="switch-cyan-glow" x1="0%" y1="0%" x2="100%" y2="0%">
        <stop offset="0%" stop-color="#06b6d4" stop-opacity="0.3"/>
        <stop offset="50%" stop-color="#38bdf8" stop-opacity="0.1"/>
        <stop offset="100%" stop-color="#06b6d4" stop-opacity="0.3"/>
      </linearGradient>
      <pattern id="grid-dots-switch" width="20" height="20" patternUnits="userSpaceOnUse">
        <circle cx="2" cy="2" r="1" fill="#ffffff" fill-opacity="0.04"/>
      </pattern>
      <marker id="arrow-cyan-sw" viewBox="0 0 10 10" refX="6" refY="5" markerWidth="6" markerHeight="6" orient="auto-start-reverse">
        <path d="M 0 1 L 8 5 L 0 9 z" fill="#06b6d4"/>
      </marker>
      <marker id="arrow-gold-sw" viewBox="0 0 10 10" refX="6" refY="5" markerWidth="6" markerHeight="6" orient="auto-start-reverse">
        <path d="M 0 1 L 8 5 L 0 9 z" fill="#e2c974"/>
      </marker>
    </defs>

    <!-- Background -->
    <rect width="800" height="400" fill="#0b1120" rx="12"/>
    <rect width="800" height="400" fill="url(#grid-dots-switch)" rx="12"/>
    <rect width="798" height="398" x="1" y="1" fill="none" stroke="#ffffff" stroke-opacity="0.08" rx="11"/>

    <!-- Header Section -->
    <g transform="translate(30, 24)">
      <circle cx="5" cy="5" r="4" fill="#06b6d4"/>
      <text x="18" y="9" fill="#06b6d4" font-weight="700" letter-spacing="1.5">PAYMENT SWITCH TOPOLOGY · ISO 8583 H2H PIPELINE</text>
      <text x="18" y="24" fill="#94a3b8" font-size="10">SUB-250MS ROUNDTRIP SLA · NATIONAL ROUTING &amp; IDEMPOTENCY MESH</text>
      <rect x="560" y="-3" width="180" height="24" rx="6" fill="#10b981" fill-opacity="0.1" stroke="#10b981" stroke-opacity="0.3"/>
      <text x="572" y="13" fill="#10b981" font-size="10" font-weight="600">HIGH AVAILABILITY 99.99%</text>
    </g>

    <!-- Main Pipeline Nodes (Horizontal Sequence) -->

    <!-- Node 1: Ingress Edge -->
    <g transform="translate(30, 75)">
      <rect width="130" height="245" rx="8" fill="#111827" fill-opacity="0.8" stroke="#ffffff" stroke-opacity="0.1"/>
      <rect width="130" height="26" rx="8" fill="#ffffff" fill-opacity="0.03"/>
      <text x="10" y="17" fill="#e2c974" font-weight="700">01. INGRESS</text>
      
      <rect x="10" y="38" width="110" height="46" rx="5" fill="#0b1120" stroke="#06b6d4" stroke-opacity="0.3"/>
      <text x="16" y="53" fill="#f8fafc" font-weight="600">TLS 1.3 / mTLS</text>
      <text x="16" y="66" fill="#94a3b8" font-size="8">Merchant Ingress</text>
      <text x="16" y="77" fill="#06b6d4" font-size="8">Payload: JSON</text>

      <rect x="10" y="94" width="110" height="52" rx="5" fill="#0b1120" stroke="#ffffff" stroke-opacity="0.08"/>
      <text x="16" y="109" fill="#f8fafc" font-weight="600">Rate Limiter</text>
      <text x="16" y="122" fill="#94a3b8" font-size="8">Token Bucket</text>
      <text x="16" y="134" fill="#38bdf8" font-size="8">P99 &lt; 5ms</text>

      <rect x="10" y="156" width="110" height="74" rx="5" fill="#0b1120" stroke="#e2c974" stroke-opacity="0.3"/>
      <text x="16" y="172" fill="#e2c974" font-weight="600">Idempotency</text>
      <text x="16" y="186" fill="#94a3b8" font-size="8">Redis SETNX</text>
      <text x="16" y="198" fill="#94a3b8" font-size="8">Key: UUIDv4</text>
      <text x="16" y="211" fill="#10b981" font-size="8">TTL: 86,400s</text>
      <text x="16" y="222" fill="#cbd5e1" font-size="7">Budget: 25ms</text>
    </g>

    <!-- Conduit 1 -> 2 -->
    <path d="M 160 140 L 180 140" fill="none" stroke="#06b6d4" stroke-width="2" stroke-dasharray="4 3" marker-end="url(#arrow-cyan-sw)"/>

    <!-- Node 2: Security & HSM Vault -->
    <g transform="translate(185, 75)">
      <rect width="130" height="245" rx="8" fill="#111827" fill-opacity="0.8" stroke="#ffffff" stroke-opacity="0.1"/>
      <rect width="130" height="26" rx="8" fill="#ffffff" fill-opacity="0.03"/>
      <text x="10" y="17" fill="#e2c974" font-weight="700">02. SECURITY</text>
      
      <rect x="10" y="38" width="110" height="52" rx="5" fill="#0b1120" stroke="#06b6d4" stroke-opacity="0.3"/>
      <text x="16" y="53" fill="#f8fafc" font-weight="600">Card Vault</text>
      <text x="16" y="66" fill="#94a3b8" font-size="8">PAN Tokenization</text>
      <text x="16" y="78" fill="#06b6d4" font-size="8">Zero-SAD Storage</text>

      <rect x="10" y="100" width="110" height="60" rx="5" fill="#0b1120" stroke="#e2c974" stroke-opacity="0.3"/>
      <text x="16" y="116" fill="#e2c974" font-weight="600">Hardware HSM</text>
      <text x="16" y="130" fill="#94a3b8" font-size="8">PIN Block Encrypt</text>
      <text x="16" y="142" fill="#94a3b8" font-size="8">Zone Master Key</text>
      <text x="16" y="153" fill="#cbd5e1" font-size="7">ANSI X9.8</text>

      <rect x="10" y="170" width="110" height="60" rx="5" fill="#0b1120" stroke="#38bdf8" stroke-opacity="0.3"/>
      <text x="16" y="186" fill="#38bdf8" font-weight="600">Risk Engine</text>
      <text x="16" y="199" fill="#94a3b8" font-size="8">Sub-15ms ML Vector</text>
      <text x="16" y="211" fill="#10b981" font-size="8">3DS 2.0 Shift</text>
      <text x="16" y="222" fill="#cbd5e1" font-size="7">Budget: 35ms</text>
    </g>

    <!-- Conduit 2 -> 3 -->
    <path d="M 315 140 L 335 140" fill="none" stroke="#06b6d4" stroke-width="2" stroke-dasharray="4 3" marker-end="url(#arrow-cyan-sw)"/>

    <!-- Node 3: Serializer & Bitmap Engine -->
    <g transform="translate(340, 75)">
      <rect width="135" height="245" rx="8" fill="#111827" fill-opacity="0.8" stroke="#06b6d4" stroke-opacity="0.4"/>
      <rect width="135" height="26" rx="8" fill="url(#switch-cyan-glow)"/>
      <text x="10" y="17" fill="#38bdf8" font-weight="700">03. ISO 8583 BITMAP</text>
      
      <rect x="10" y="38" width="115" height="48" rx="5" fill="#0b1120" stroke="#ffffff" stroke-opacity="0.08"/>
      <text x="16" y="53" fill="#f8fafc" font-weight="600">MTI Dispatch</text>
      <text x="16" y="66" fill="#94a3b8" font-size="8">0100 Auth Request</text>
      <text x="16" y="78" fill="#06b6d4" font-size="8">0200 Purchase Exec</text>

      <rect x="10" y="96" width="115" height="74" rx="5" fill="#0b1120" stroke="#06b6d4" stroke-opacity="0.3"/>
      <text x="16" y="112" fill="#06b6d4" font-weight="600">Field Packing</text>
      <text x="16" y="125" fill="#94a3b8" font-size="8">F3: ProcCode 000000</text>
      <text x="16" y="137" fill="#94a3b8" font-size="8">F4: Amount Zero-Pad</text>
      <text x="16" y="149" fill="#94a3b8" font-size="8">F11: STAN Trace</text>
      <text x="16" y="161" fill="#cbd5e1" font-size="8">F41/F42: Terminal ID</text>

      <rect x="10" y="180" width="115" height="50" rx="5" fill="#0b1120" stroke="#e2c974" stroke-opacity="0.3"/>
      <text x="16" y="196" fill="#e2c974" font-weight="600">Timeout Guard</text>
      <text x="16" y="209" fill="#94a3b8" font-size="8">15s Read Threshold</text>
      <text x="16" y="221" fill="#f43f5e" font-size="8">Auto 0400 Reversal</text>
    </g>

    <!-- Conduit 3 -> 4 -->
    <path d="M 475 140 L 495 140" fill="none" stroke="#06b6d4" stroke-width="2" stroke-dasharray="4 3" marker-end="url(#arrow-cyan-sw)"/>

    <!-- Node 4: Switch Core & Bank Network -->
    <g transform="translate(500, 75)">
      <rect width="130" height="245" rx="8" fill="#111827" fill-opacity="0.8" stroke="#ffffff" stroke-opacity="0.1"/>
      <rect width="130" height="26" rx="8" fill="#ffffff" fill-opacity="0.03"/>
      <text x="10" y="17" fill="#e2c974" font-weight="700">04. CLEARING</text>
      
      <rect x="10" y="38" width="110" height="52" rx="5" fill="#0b1120" stroke="#06b6d4" stroke-opacity="0.3"/>
      <text x="16" y="53" fill="#f8fafc" font-weight="600">APN / IPsec</text>
      <text x="16" y="66" fill="#94a3b8" font-size="8">Dedicated Tunnel</text>
      <text x="16" y="78" fill="#06b6d4" font-size="8">Direct Host-to-Host</text>

      <rect x="10" y="100" width="110" height="60" rx="5" fill="#0b1120" stroke="#38bdf8" stroke-opacity="0.3"/>
      <text x="16" y="116" fill="#38bdf8" font-weight="600">Shaparak / Scheme</text>
      <text x="16" y="129" fill="#94a3b8" font-size="8">Central Switch</text>
      <text x="16" y="141" fill="#94a3b8" font-size="8">Card Acquirer</text>
      <text x="16" y="152" fill="#cbd5e1" font-size="7">Budget: 140ms</text>

      <rect x="10" y="170" width="110" height="60" rx="5" fill="#0b1120" stroke="#10b981" stroke-opacity="0.3"/>
      <text x="16" y="186" fill="#10b981" font-weight="600">Issuing Bank</text>
      <text x="16" y="199" fill="#94a3b8" font-size="8">Core Banking Host</text>
      <text x="16" y="211" fill="#94a3b8" font-size="8">Account Balance</text>
      <text x="16" y="222" fill="#10b981" font-size="8">0210 Auth Approved</text>
    </g>

    <!-- Conduit 4 -> 5 -->
    <path d="M 630 140 L 650 140" fill="none" stroke="#06b6d4" stroke-width="2" stroke-dasharray="4 3" marker-end="url(#arrow-cyan-sw)"/>

    <!-- Node 5: Settlement & Egress -->
    <g transform="translate(655, 75)">
      <rect width="115" height="245" rx="8" fill="#111827" fill-opacity="0.8" stroke="#ffffff" stroke-opacity="0.1"/>
      <rect width="115" height="26" rx="8" fill="#ffffff" fill-opacity="0.03"/>
      <text x="10" y="17" fill="#e2c974" font-weight="700">05. SETTLE</text>
      
      <rect x="10" y="38" width="95" height="52" rx="5" fill="#0b1120" stroke="#10b981" stroke-opacity="0.3"/>
      <text x="15" y="53" fill="#10b981" font-weight="600">Double-Entry</text>
      <text x="15" y="66" fill="#94a3b8" font-size="8">Append Fact</text>
      <text x="15" y="78" fill="#cbd5e1" font-size="8">ScyllaDB Log</text>

      <rect x="10" y="100" width="95" height="60" rx="5" fill="#0b1120" stroke="#06b6d4" stroke-opacity="0.3"/>
      <text x="15" y="116" fill="#06b6d4" font-weight="600">Paya / Satna</text>
      <text x="15" y="129" fill="#94a3b8" font-size="8">Batch Settlement</text>
      <text x="15" y="141" fill="#94a3b8" font-size="8">T+1 Clearing</text>
      <text x="15" y="152" fill="#cbd5e1" font-size="7">Budget: 35ms</text>

      <rect x="10" y="170" width="95" height="60" rx="5" fill="#0b1120" stroke="#ffffff" stroke-opacity="0.08"/>
      <text x="15" y="186" fill="#f8fafc" font-weight="600">Egress Pack</text>
      <text x="15" y="199" fill="#94a3b8" font-size="8">JSON Response</text>
      <text x="15" y="211" fill="#10b981" font-size="8">HTTP 200 OK</text>
      <text x="15" y="222" fill="#cbd5e1" font-size="7">Budget: 15ms</text>
    </g>

    <!-- Bottom Latency Budget Timeline Bar -->
    <g transform="translate(30, 340)">
      <rect width="740" height="28" rx="6" fill="#111827" stroke="#ffffff" stroke-opacity="0.1"/>
      
      <!-- Segment 1: Ingress (25ms) -->
      <rect x="0" y="0" width="74" height="28" rx="6" fill="#06b6d4" fill-opacity="0.15"/>
      <text x="8" y="18" fill="#38bdf8" font-size="8" font-weight="600">Ingress 25ms</text>
      
      <!-- Segment 2: Risk/Lock (35ms) -->
      <rect x="74" y="0" width="103" height="28" fill="#e2c974" fill-opacity="0.15"/>
      <text x="82" y="18" fill="#e2c974" font-size="8" font-weight="600">Risk/Lock 35ms</text>
      
      <!-- Segment 3: Host Auth (140ms) -->
      <rect x="177" y="0" width="414" height="28" fill="#38bdf8" fill-opacity="0.2"/>
      <text x="320" y="18" fill="#f8fafc" font-size="9" font-weight="700">Bank Host Authorization: 140ms</text>
      
      <!-- Segment 4: Settle Commit (35ms) -->
      <rect x="591" y="0" width="104" height="28" fill="#10b981" fill-opacity="0.15"/>
      <text x="599" y="18" fill="#10b981" font-size="8" font-weight="600">DB Settle 35ms</text>
      
      <!-- Segment 5: Egress (15ms) -->
      <rect x="695" y="0" width="45" height="28" rx="6" fill="#ffffff" fill-opacity="0.1"/>
      <text x="700" y="18" fill="#cbd5e1" font-size="8" font-weight="600">15ms</text>
    </g>

    <!-- Footer Summary -->
    <g transform="translate(30, 385)">
      <text x="0" y="5" fill="#94a3b8" font-size="9">TOTAL ROUNDTRIP LATENCY BUDGET: 250 MS SLA</text>
      <text x="495" y="5" fill="#06b6d4" font-size="9" font-weight="600">DETERMINISTIC ISO 8583 BITMAP ROUTING</text>
    </g>
  </svg>
